<?xml version="1.0" standalone="no"?>
<!DOCTYPE svg PUBLIC "-//W3C//DTD SVG 20010904//EN"
 "http://www.w3.org/TR/2001/REC-SVG-20010904/DTD/svg10.dtd">
<svg version="1.0" xmlns="http://www.w3.org/2000/svg"
 width="512.000000pt" height="512.000000pt" viewBox="0 0 512.000000 512.000000"
 preserveAspectRatio="xMidYMid meet">

<g transform="translate(0.000000,512.000000) scale(0.100000,-0.100000)"
fill="#000000" stroke="none">
<path d="M2160 4480 l0 -560 320 0 320 0 0 -280 0 -280 -240 0 -240 0 0 -120
0 -120 -360 0 -360 0 0 -80 0 -80 360 0 360 0 0 -120 0 -120 240 0 240 0 0
-258 0 -259 -350 -218 c-193 -120 -350 -221 -350 -225 0 -4 158 -105 350 -225
l350 -218 0 -219 0 -218 -256 0 c-172 0 -270 -4 -298 -12 -55 -16 -138 -99
-154 -154 -16 -56 -16 -412 0 -468 16 -55 99 -138 154 -154 59 -17 1209 -17
1268 0 55 16 138 99 154 154 16 55 16 412 0 466 -6 22 -31 62 -55 88 -68 75
-90 80 -395 80 l-258 0 0 218 0 217 350 219 c193 120 350 222 350 226 0 4
-157 106 -350 226 l-350 219 0 257 0 258 240 0 240 0 0 320 0 320 -240 0 -240
0 0 280 0 280 320 0 320 0 0 560 0 560 -720 0 -720 0 0 -560z m1280 0 l0 -400
-560 0 -560 0 0 400 0 400 560 0 560 0 0 -400z m-160 -1440 l0 -160 -400 0
-400 0 0 160 0 160 400 0 400 0 0 -160z m-152 -1130 c128 -80 232 -147 232
-150 0 -10 -464 -295 -480 -295 -16 0 -480 285 -480 295 0 11 466 299 481 297
8 -1 120 -67 247 -147z m345 -1201 c41 -19 47 -49 47 -229 0 -180 -6 -210 -47
-229 -34 -15 -1152 -15 -1186 0 -41 19 -47 49 -47 229 0 177 6 210 44 228 30
15 1157 16 1189 1z"/>
<path d="M2480 4640 l0 -80 400 0 400 0 0 80 0 80 -400 0 -400 0 0 -80z"/>
<path d="M2480 4320 l0 -80 240 0 240 0 0 80 0 80 -240 0 -240 0 0 -80z"/>
<path d="M3120 4320 l0 -80 80 0 80 0 0 80 0 80 -80 0 -80 0 0 -80z"/>
<path d="M4722 4707 c-43 -13 -116 -78 -132 -117 l-12 -30 -409 0 -409 0 0
-80 0 -80 409 0 409 0 12 -30 c14 -34 77 -95 109 -105 l21 -6 0 -1139 0 -1139
-21 -6 c-32 -10 -95 -71 -109 -105 l-12 -30 -272 0 -271 0 90 90 90 90 -58 57
-57 58 -188 -188 -187 -187 187 -187 188 -188 57 58 58 57 -90 90 -90 90 271
0 272 0 12 -30 c28 -68 129 -130 210 -130 124 0 240 116 240 240 0 81 -62 182
-130 210 l-30 12 0 1138 0 1138 30 12 c42 17 104 90 118 138 26 86 8 162 -55
232 -64 72 -159 97 -251 67z m129 -176 c16 -16 29 -39 29 -51 0 -28 -52 -80
-80 -80 -12 0 -35 13 -51 29 -16 16 -29 39 -29 51 0 12 13 35 29 51 16 16 39
29 51 29 12 0 35 -13 51 -29z m0 -2720 c16 -16 29 -39 29 -51 0 -28 -52 -80
-80 -80 -28 0 -80 52 -80 80 0 28 52 80 80 80 12 0 35 -13 51 -29z"/>
<path d="M1200 4320 l0 -80 80 0 80 0 0 80 0 80 -80 0 -80 0 0 -80z"/>
<path d="M1520 4320 l0 -80 80 0 80 0 0 80 0 80 -80 0 -80 0 0 -80z"/>
<path d="M1840 4320 l0 -80 80 0 80 0 0 80 0 80 -80 0 -80 0 0 -80z"/>
<path d="M370 3289 c-184 -132 -335 -244 -335 -249 0 -11 670 -490 686 -490
14 0 689 480 689 490 0 11 -676 490 -691 489 -8 0 -165 -108 -349 -240z m556
-95 c112 -80 204 -150 204 -154 0 -4 -92 -74 -205 -154 l-205 -147 -205 147
c-113 81 -204 151 -203 156 3 8 396 296 406 297 2 1 95 -65 208 -145z"/>
<path d="M640 1551 l0 -849 -30 -12 c-68 -28 -130 -129 -130 -210 0 -124 116
-240 240 -240 81 0 182 62 210 130 l12 30 352 0 351 0 -90 -90 -90 -90 58 -57
57 -58 187 188 188 187 -185 185 c-102 102 -190 185 -195 185 -13 0 -105 -92
-105 -105 0 -5 39 -49 87 -97 l88 -88 -351 0 -352 0 -12 30 c-14 34 -77 95
-109 105 l-21 6 0 850 0 849 -80 0 -80 0 0 -849z m131 -1020 c16 -16 29 -39
29 -51 0 -28 -52 -80 -80 -80 -28 0 -80 52 -80 80 0 28 52 80 80 80 12 0 35
-13 51 -29z"/>
<path d="M3840 480 l0 -80 80 0 80 0 0 80 0 80 -80 0 -80 0 0 -80z"/>
<path d="M4160 480 l0 -80 80 0 80 0 0 80 0 80 -80 0 -80 0 0 -80z"/>
<path d="M4480 480 l0 -80 80 0 80 0 0 80 0 80 -80 0 -80 0 0 -80z"/>
</g>
</svg>
