<?xml version="1.0" standalone="no"?>
<!DOCTYPE svg PUBLIC "-//W3C//DTD SVG 20010904//EN"
 "http://www.w3.org/TR/2001/REC-SVG-20010904/DTD/svg10.dtd">
<svg version="1.0" xmlns="http://www.w3.org/2000/svg"
 width="1300.000000pt" height="1300.000000pt" viewBox="0 0 1300.000000 1300.000000"
 preserveAspectRatio="xMidYMid meet">

<g transform="translate(0.000000,1300.000000) scale(0.100000,-0.100000)"
fill="#000000" stroke="none">
<path d="M11940 12258 c-44 -78 -216 -333 -300 -443 -759 -1001 -2031 -1976
-3855 -2955 -263 -141 -1057 -534 -1365 -675 -1000 -459 -2069 -887 -3060
-1227 -340 -116 -563 -234 -812 -428 -119 -93 -371 -348 -460 -465 -290 -384
-460 -799 -529 -1295 -18 -121 -18 -512 -1 -640 63 -477 238 -906 524 -1287
94 -126 342 -377 480 -484 456 -359 1043 -558 1639 -559 467 0 976 146 1379
395 236 147 510 388 674 595 311 392 500 844 567 1360 19 143 16 490 -5 635
-46 321 -128 587 -266 865 -58 118 -62 161 -20 219 25 36 87 71 124 71 75 0
114 -37 181 -171 179 -356 271 -696 306 -1134 24 -301 -18 -684 -112 -1009
-109 -382 -318 -774 -574 -1079 l-66 -78 68 7 c469 42 858 103 1253 196 989
232 1883 620 2727 1182 100 66 176 122 168 124 -7 2 -94 -8 -192 -22 -562 -80
-1199 -105 -1770 -71 -271 16 -553 46 -595 63 -14 6 -39 27 -54 47 -22 30 -28
48 -28 90 -1 91 54 143 175 164 278 48 633 155 922 277 359 152 686 342 1016
589 220 166 373 297 570 489 463 455 839 953 1220 1620 l22 39 -23 -15 c-43
-28 -336 -187 -455 -246 -511 -256 -1138 -472 -1716 -591 -173 -36 -211 -38
-255 -11 -94 57 -95 199 -3 254 90 53 257 167 366 251 554 425 994 973 1343
1671 480 960 751 2118 812 3478 6 131 9 240 7 242 -2 2 -14 -15 -27 -38z
m-3076 -3982 c78 -32 111 -148 65 -223 -23 -36 -105 -88 -414 -260 -679 -377
-1548 -793 -2610 -1248 -456 -196 -624 -266 -870 -365 -99 -39 -212 -85 -251
-101 -202 -82 -514 -171 -783 -224 -184 -36 -304 -76 -451 -151 -280 -142
-502 -367 -645 -653 -172 -345 -202 -755 -81 -1121 165 -502 583 -873 1111
-986 302 -65 673 -17 949 122 303 153 519 366 667 657 99 195 142 354 159 585
6 90 14 131 27 155 61 104 205 103 267 -2 54 -93 -10 -504 -118 -760 -134
-317 -379 -612 -666 -802 -363 -241 -836 -344 -1255 -273 -248 42 -453 118
-658 245 -310 193 -571 499 -705 830 -233 572 -172 1179 169 1689 208 312 543
570 894 689 50 17 173 49 275 71 452 100 562 137 1264 430 1469 612 2537 1122
3411 1629 150 87 181 95 249 67z"/>
</g>
</svg>
