<?xml version="1.0" standalone="no"?>
<!DOCTYPE svg PUBLIC "-//W3C//DTD SVG 20010904//EN"
 "http://www.w3.org/TR/2001/REC-SVG-20010904/DTD/svg10.dtd">
<svg version="1.0" xmlns="http://www.w3.org/2000/svg"
 width="200.000000pt" height="200.000000pt" viewBox="0 0 200.000000 200.000000"
 preserveAspectRatio="xMidYMid meet">

<g transform="translate(0.000000,200.000000) scale(0.100000,-0.100000)"
fill="#000000" stroke="none">
<path d="M151 1986 c-48 -27 -50 -41 -51 -358 l0 -298 -34 0 c-62 0 -66 -15
-66 -267 0 -210 1 -224 20 -243 11 -11 33 -20 50 -20 l30 0 0 -300 0 -300 29
-32 29 -33 186 -3 186 -3 0 -24 c0 -12 9 -33 19 -46 19 -23 23 -24 210 -27
l191 -3 25 25 c14 14 25 37 25 51 0 22 4 25 35 25 33 0 35 -2 35 -34 0 -22 9
-45 24 -63 24 -28 25 -28 163 -31 139 -3 140 -3 171 23 22 18 34 39 38 65 l6
39 185 3 185 3 29 33 29 32 0 400 0 400 28 0 c17 0 37 10 50 23 21 22 22 32
22 230 0 194 -1 208 -20 227 -11 11 -33 20 -50 20 l-30 0 0 210 c0 229 -5 255
-55 278 -40 18 -1661 16 -1694 -2z m1677 -273 l2 -213 -158 0 c-126 0 -162 -3
-180 -16 -22 -15 -22 -19 -22 -234 0 -215 0 -219 22 -234 18 -13 54 -16 180
-16 l158 0 -2 -397 -3 -398 -177 -3 -178 -2 0 235 c0 232 -4 267 -34 287 -6 4
-83 8 -172 8 -143 0 -163 -2 -177 -18 -14 -16 -17 -51 -18 -265 l-1 -247 -34
0 -34 0 0 130 c0 180 14 170 -234 170 l-195 0 -20 -26 c-19 -24 -21 -40 -21
-151 l0 -123 -177 2 -178 3 -3 298 -2 297 30 0 30 0 0 -69 c0 -99 3 -101 154
-101 130 0 152 7 144 47 -2 14 -14 19 -51 21 -48 3 -48 4 -45 35 3 30 6 32 48
37 40 4 45 8 45 30 0 22 -5 26 -45 30 -42 5 -45 7 -48 37 -3 31 -3 32 45 35
42 3 48 6 51 27 5 29 -12 41 -60 41 -35 0 -38 2 -38 29 0 28 3 30 41 33 45 3
67 24 56 52 -5 12 -19 16 -52 16 -46 0 -46 0 -43 33 3 30 6 32 48 37 40 4 45
8 45 30 0 22 -5 26 -45 30 -42 5 -45 7 -48 37 -3 31 -3 32 45 35 42 3 48 6 51
27 5 29 -12 41 -60 41 -35 0 -38 2 -38 29 0 28 3 30 41 33 45 3 67 24 56 52
-5 14 -25 16 -140 16 -90 0 -137 -4 -145 -12 -7 -7 -12 -42 -12 -85 l0 -73
-30 0 -30 0 0 293 c0 162 3 297 7 300 3 4 376 6 827 5 l821 -3 3 -212z m-1459
-648 l-1 -365 -34 0 -34 0 0 365 0 365 34 0 35 0 0 -365z m1561 185 l0 -180
-200 0 -200 0 0 180 0 180 200 0 200 0 0 -180z m-1700 -180 l0 -200 -80 0 -80
0 0 199 0 199 80 1 80 0 0 -199z m1170 -565 l0 -165 -50 0 -50 0 0 69 c0 76
-16 104 -48 84 -13 -7 -18 -28 -20 -82 l-3 -71 -49 0 -50 0 0 158 c0 87 3 162
7 165 3 4 64 7 135 7 l128 0 0 -165z m-470 -240 l0 -165 -165 0 -165 0 0 165
0 165 165 0 165 0 0 -165z m468 -97 l-3 -93 -119 -3 c-75 -2 -123 1 -131 8 -9
8 -14 38 -14 96 l0 84 135 0 135 0 -3 -92z"/>
<path d="M284 1851 c-89 -54 -53 -181 51 -181 105 0 132 155 33 189 -41 15
-48 14 -84 -8z m75 -65 c23 -28 -17 -68 -45 -45 -17 14 -18 31 -2 47 16 16 33
15 47 -2z"/>
<path d="M510 1855 c-25 -30 15 -70 45 -45 19 16 19 25 -1 44 -19 20 -28 20
-44 1z"/>
<path d="M646 1854 c-19 -19 -17 -33 7 -48 24 -15 56 17 41 41 -15 24 -29 26
-48 7z"/>
<path d="M782 1861 c-8 -4 -12 -19 -10 -32 4 -34 52 -34 56 0 3 20 -11 41 -28
41 -3 0 -11 -4 -18 -9z"/>
<path d="M910 1855 c-25 -30 15 -70 45 -45 19 16 19 25 -1 44 -19 20 -28 20
-44 1z"/>
<path d="M1046 1854 c-19 -19 -17 -33 7 -48 24 -15 56 17 41 41 -15 24 -29 26
-48 7z"/>
<path d="M1182 1861 c-8 -4 -12 -19 -10 -32 4 -34 52 -34 56 0 3 20 -11 41
-28 41 -3 0 -11 -4 -18 -9z"/>
<path d="M1310 1855 c-14 -17 -7 -43 15 -51 15 -6 45 11 45 27 0 4 -7 15 -16
23 -19 20 -28 20 -44 1z"/>
<path d="M1446 1854 c-19 -19 -17 -33 7 -48 24 -15 56 17 41 41 -15 24 -29 26
-48 7z"/>
<path d="M1630 1859 c-98 -39 -68 -189 37 -189 99 0 134 129 49 181 -34 21
-49 22 -86 8z m64 -81 c8 -14 7 -21 -5 -33 -28 -29 -73 11 -48 42 15 17 38 13
53 -9z"/>
<path d="M504 1715 c-9 -23 3 -45 24 -45 25 0 44 23 36 44 -8 20 -53 21 -60 1z"/>
<path d="M637 1716 c-11 -28 4 -47 32 -44 20 2 26 8 26 28 0 20 -6 26 -26 28
-17 2 -29 -3 -32 -12z"/>
<path d="M774 1716 c-10 -26 4 -48 28 -44 17 2 23 10 23 28 0 18 -6 26 -23 28
-13 2 -25 -3 -28 -12z"/>
<path d="M904 1715 c-9 -23 3 -45 24 -45 25 0 44 23 36 44 -8 20 -53 21 -60 1z"/>
<path d="M1037 1716 c-11 -28 4 -47 32 -44 20 2 26 8 26 28 0 20 -6 26 -26 28
-17 2 -29 -3 -32 -12z"/>
<path d="M1174 1716 c-10 -26 4 -48 28 -44 17 2 23 10 23 28 0 18 -6 26 -23
28 -13 2 -25 -3 -28 -12z"/>
<path d="M1304 1715 c-9 -23 3 -45 24 -45 25 0 44 23 36 44 -8 20 -53 21 -60
1z"/>
<path d="M1437 1716 c-11 -28 4 -47 32 -44 20 2 26 8 26 28 0 20 -6 26 -26 28
-17 2 -29 -3 -32 -12z"/>
<path d="M764 1322 c-29 -19 -34 -55 -34 -262 0 -211 0 -211 25 -235 l24 -25
221 0 221 0 24 25 c25 24 25 24 25 235 0 207 -5 243 -34 262 -6 4 -112 8 -236
8 -124 0 -230 -4 -236 -8z m436 -252 l0 -200 -200 0 -200 0 0 200 0 200 200 0
200 0 0 -200z"/>
<path d="M284 451 c-89 -54 -53 -181 51 -181 105 0 132 155 33 189 -41 15 -48
14 -84 -8z m75 -65 c23 -28 -17 -68 -45 -45 -17 14 -18 31 -2 47 16 16 33 15
47 -2z"/>
<path d="M1630 459 c-98 -39 -68 -189 37 -189 99 0 134 129 49 181 -34 21 -49
22 -86 8z m64 -81 c8 -14 7 -21 -5 -33 -28 -29 -73 11 -48 42 15 17 38 13 53
-9z"/>
<path d="M1609 1354 c-9 -11 -10 -20 -2 -32 8 -14 27 -17 93 -17 66 0 85 3 93
17 21 33 -8 48 -93 48 -59 0 -81 -4 -91 -16z"/>
<path d="M1609 1184 c-9 -11 -10 -20 -2 -32 15 -25 171 -25 186 0 8 12 7 21
-2 32 -19 23 -163 23 -182 0z"/>
<path d="M674 317 c-3 -8 -4 -36 -2 -63 3 -45 5 -49 28 -49 24 0 25 3 25 60 0
55 -2 60 -23 63 -12 2 -24 -3 -28 -11z"/>
<path d="M807 323 c-14 -13 -7 -100 9 -114 35 -29 66 32 50 97 -5 17 -14 24
-30 24 -12 0 -26 -3 -29 -7z"/>
</g>
</svg>
