<?xml version="1.0" standalone="no"?>
<!DOCTYPE svg PUBLIC "-//W3C//DTD SVG 20010904//EN"
 "http://www.w3.org/TR/2001/REC-SVG-20010904/DTD/svg10.dtd">
<svg version="1.0" xmlns="http://www.w3.org/2000/svg"
 width="512.000000pt" height="512.000000pt" viewBox="0 0 512.000000 512.000000"
 preserveAspectRatio="xMidYMid meet">

<g transform="translate(0.000000,512.000000) scale(0.100000,-0.100000)"
fill="#000000" stroke="none">
<path d="M2840 5105 c-72 -18 -125 -41 -175 -75 -22 -15 -421 -340 -887 -722
l-848 -694 -71 10 c-145 20 -298 -34 -410 -144 -68 -67 -110 -135 -136 -224
-22 -70 -19 -205 5 -286 22 -74 257 -723 273 -752 27 -49 107 -41 129 13 11
27 1 60 -124 407 -75 207 -140 402 -145 432 -30 190 95 362 293 402 105 21
231 -20 309 -101 25 -25 741 -1122 879 -1346 4 -7 -19 -8 -70 -4 -151 14 -352
-19 -485 -78 -137 -61 -271 -158 -372 -271 -21 -23 -40 -40 -42 -38 -3 3 -31
75 -62 160 -31 86 -64 165 -74 176 -25 30 -80 27 -106 -6 -12 -15 -21 -33 -21
-41 0 -7 36 -114 81 -238 l81 -224 -30 -73 c-51 -125 -81 -292 -82 -459 l0
-56 -107 -7 c-165 -10 -233 -36 -326 -125 -102 -97 -127 -185 -127 -444 0
-202 3 -219 55 -267 l27 -25 1489 -3 c1641 -2 1538 -6 1579 60 20 31 21 46 18
263 l-3 230 -31 66 c-40 85 -118 163 -201 202 -65 30 -154 46 -265 47 l-58 0
0 101 c0 412 -206 759 -559 941 l-84 43 -268 415 c-148 228 -268 420 -268 425
0 9 1299 1076 1319 1083 4 2 91 -54 191 -123 101 -69 195 -129 208 -132 54
-13 107 50 84 99 -6 13 -86 75 -177 138 -92 62 -169 117 -171 121 -3 3 52 53
121 109 68 57 143 123 166 149 38 43 108 171 108 198 0 6 4 14 9 17 11 7 946
-634 998 -685 132 -130 105 -375 -52 -474 -68 -43 -132 -59 -205 -52 -78 9
-118 30 -340 183 -102 70 -197 132 -211 137 -51 20 -110 -44 -89 -97 6 -16 77
-71 196 -152 l187 -128 -7 -121 c-5 -92 -3 -133 9 -178 8 -32 15 -62 15 -67 0
-5 -52 -68 -115 -140 -63 -72 -122 -145 -131 -162 -19 -36 -20 -117 -3 -150 7
-13 59 -85 117 -160 106 -139 135 -163 178 -147 26 9 54 46 54 71 0 9 -50 83
-110 164 -95 126 -109 149 -98 163 46 59 212 241 217 238 79 -43 110 -52 191
-52 70 0 93 4 128 23 24 13 45 22 46 20 2 -2 46 -60 99 -130 53 -69 97 -132
97 -140 0 -7 -49 -70 -110 -138 -60 -69 -113 -135 -116 -148 -14 -51 37 -101
90 -88 30 7 251 255 273 306 10 22 14 53 11 87 -4 48 -12 62 -122 206 l-117
155 19 58 c15 44 21 103 27 229 7 168 7 170 39 225 49 83 68 149 68 238 0 135
-45 246 -135 332 -28 28 -284 209 -567 403 l-515 353 -18 69 c-76 291 -358
468 -637 400z m198 -145 c114 -27 216 -108 267 -215 26 -53 29 -71 30 -156 0
-90 -2 -99 -37 -170 -20 -40 -49 -86 -65 -100 -15 -15 -403 -333 -862 -709
-685 -560 -836 -680 -846 -668 -7 7 -81 121 -166 253 -105 164 -172 257 -212
296 l-58 57 53 44 c108 91 1505 1234 1570 1284 105 81 215 109 326 84z m1412
-1944 c-5 -109 -6 -116 -36 -153 -55 -69 -137 -92 -210 -57 -78 37 -110 111
-99 229 l7 72 42 -9 c55 -13 203 -4 246 16 19 8 40 15 45 16 6 0 8 -41 5 -114z
m-2495 -1161 c257 -53 476 -223 595 -460 67 -133 90 -227 97 -392 l6 -133
-166 0 -165 0 14 53 c18 69 18 188 -1 262 -27 107 -72 184 -154 265 -122 121
-239 170 -409 170 -379 0 -648 -359 -546 -727 l6 -23 -166 0 -166 0 0 48 c0
306 92 539 281 718 123 115 289 199 449 227 63 11 256 6 325 -8z m-2 -422
c194 -91 293 -319 225 -518 l-13 -40 -387 -3 -386 -2 -15 47 c-23 72 -27 121
-17 191 22 157 129 286 284 343 39 14 73 18 146 16 83 -2 104 -7 163 -34z"/>
<path d="M2897 4819 c-56 -13 -90 -33 -130 -78 -88 -98 -82 -246 15 -338 97
-93 260 -86 349 14 43 50 60 95 60 162 1 69 -16 114 -62 166 -55 62 -152 93
-232 74z m118 -175 c54 -58 15 -154 -62 -154 -47 0 -72 16 -89 56 -12 29 -12
39 0 68 17 41 39 55 89 56 28 0 44 -7 62 -26z"/>
<path d="M692 3324 c-84 -42 -132 -121 -132 -216 0 -151 142 -270 287 -240
199 41 268 279 121 419 -71 69 -183 84 -276 37z m165 -139 c28 -20 46 -75 34
-106 -38 -99 -181 -74 -181 31 0 68 91 114 147 75z"/>
<path d="M3687 1158 c-23 -14 -45 -38 -57 -63 -19 -39 -20 -62 -20 -505 0
-443 1 -466 20 -505 13 -26 34 -49 59 -63 39 -22 42 -22 591 -22 549 0 552 0
591 22 25 14 46 37 59 63 19 39 20 62 20 505 0 443 -1 466 -20 505 -13 26 -34
49 -59 63 -39 22 -41 22 -592 22 -551 0 -554 -1 -592 -22z m275 -305 c3 -169
4 -180 27 -212 35 -49 74 -61 196 -61 l105 0 0 -215 0 -215 -260 0 -260 0 0
440 0 440 94 0 94 0 4 -177z m478 32 l0 -145 -160 0 -160 0 0 145 0 145 160 0
160 0 0 -145z"/>
</g>
</svg>
